<?xml version="1.0" encoding="UTF-8" standalone="no"?>
<!DOCTYPE svg PUBLIC "-//W3C//DTD SVG 1.1//EN"
 "http://www.w3.org/Graphics/SVG/1.1/DTD/svg11.dtd">
<!-- Generated by graphviz version 2.40.1 (20161225.0304)
 -->
<!-- Title: %3 Pages: 1 -->
<svg width="1611pt" height="548pt"
 viewBox="0.00 0.00 1611.19 548.00" xmlns="http://www.w3.org/2000/svg" xmlns:xlink="http://www.w3.org/1999/xlink">
<g id="graph0" class="graph" transform="scale(1 1) rotate(0) translate(4 544)">
<title>%3</title>
<polygon fill="#ffffff" stroke="transparent" points="-4,4 -4,-544 1607.1892,-544 1607.1892,4 -4,4"/>
<!-- [root] aws_elb.load_balancing -->
<g id="node1" class="node">
<title>[root] aws_elb.load_balancing</title>
<polygon fill="none" stroke="#000000" points="557.5,-324 406.5,-324 406.5,-288 557.5,-288 557.5,-324"/>
<text text-anchor="middle" x="482" y="-302.3" font-family="Times,serif" font-size="14.00" fill="#000000">aws_elb.load_balancing</text>
</g>
<!-- [root] aws_instance.my_instances -->
<g id="node2" class="node">
<title>[root] aws_instance.my_instances</title>
<polygon fill="none" stroke="#000000" points="940.5,-252 769.5,-252 769.5,-216 940.5,-216 940.5,-252"/>
<text text-anchor="middle" x="855" y="-230.3" font-family="Times,serif" font-size="14.00" fill="#000000">aws_instance.my_instances</text>
</g>
<!-- [root] aws_elb.load_balancing&#45;&gt;[root] aws_instance.my_instances -->
<g id="edge1" class="edge">
<title>[root] aws_elb.load_balancing&#45;&gt;[root] aws_instance.my_instances</title>
<path fill="none" stroke="#000000" d="M557.9317,-291.3429C616.1625,-280.1027 696.9007,-264.5178 759.5104,-252.4323"/>
<polygon fill="#000000" stroke="#000000" points="760.2417,-255.8559 769.397,-250.5239 758.9149,-248.9827 760.2417,-255.8559"/>
</g>
<!-- [root] aws_security_group.elb -->
<g id="node6" class="node">
<title>[root] aws_security_group.elb</title>
<polygon fill="none" stroke="#000000" points="150,-180 0,-180 0,-144 150,-144 150,-180"/>
<text text-anchor="middle" x="75" y="-158.3" font-family="Times,serif" font-size="14.00" fill="#000000">aws_security_group.elb</text>
</g>
<!-- [root] aws_elb.load_balancing&#45;&gt;[root] aws_security_group.elb -->
<g id="edge2" class="edge">
<title>[root] aws_elb.load_balancing&#45;&gt;[root] aws_security_group.elb</title>
<path fill="none" stroke="#000000" d="M430.8653,-287.9081C355.6742,-261.3049 215.5473,-211.7268 135.3946,-183.3681"/>
<polygon fill="#000000" stroke="#000000" points="136.5203,-180.0538 125.9255,-180.0179 134.1854,-186.653 136.5203,-180.0538"/>
</g>
<!-- [root] aws_key_pair.deployer -->
<g id="node4" class="node">
<title>[root] aws_key_pair.deployer</title>
<polygon fill="none" stroke="#000000" points="929.5,-180 782.5,-180 782.5,-144 929.5,-144 929.5,-180"/>
<text text-anchor="middle" x="856" y="-158.3" font-family="Times,serif" font-size="14.00" fill="#000000">aws_key_pair.deployer</text>
</g>
<!-- [root] aws_instance.my_instances&#45;&gt;[root] aws_key_pair.deployer -->
<g id="edge3" class="edge">
<title>[root] aws_instance.my_instances&#45;&gt;[root] aws_key_pair.deployer</title>
<path fill="none" stroke="#000000" d="M855.2523,-215.8314C855.3593,-208.131 855.4865,-198.9743 855.6053,-190.4166"/>
<polygon fill="#000000" stroke="#000000" points="859.1049,-190.4609 855.7443,-180.4133 852.1056,-190.3637 859.1049,-190.4609"/>
</g>
<!-- [root] aws_security_group.sg&#45;instance -->
<g id="node7" class="node">
<title>[root] aws_security_group.sg&#45;instance</title>
<polygon fill="none" stroke="#000000" points="584,-180 388,-180 388,-144 584,-144 584,-180"/>
<text text-anchor="middle" x="486" y="-158.3" font-family="Times,serif" font-size="14.00" fill="#000000">aws_security_group.sg&#45;instance</text>
</g>
<!-- [root] aws_instance.my_instances&#45;&gt;[root] aws_security_group.sg&#45;instance -->
<g id="edge4" class="edge">
<title>[root] aws_instance.my_instances&#45;&gt;[root] aws_security_group.sg&#45;instance</title>
<path fill="none" stroke="#000000" d="M769.4165,-217.3008C715.4899,-206.7785 645.5564,-193.133 588.6515,-182.0296"/>
<polygon fill="#000000" stroke="#000000" points="589.034,-178.5383 578.5488,-180.0583 587.6934,-185.4087 589.034,-178.5383"/>
</g>
<!-- [root] aws_subnet.squad_subnet -->
<g id="node8" class="node">
<title>[root] aws_subnet.squad_subnet</title>
<polygon fill="none" stroke="#000000" points="764,-180 602,-180 602,-144 764,-144 764,-180"/>
<text text-anchor="middle" x="683" y="-158.3" font-family="Times,serif" font-size="14.00" fill="#000000">aws_subnet.squad_subnet</text>
</g>
<!-- [root] aws_instance.my_instances&#45;&gt;[root] aws_subnet.squad_subnet -->
<g id="edge5" class="edge">
<title>[root] aws_instance.my_instances&#45;&gt;[root] aws_subnet.squad_subnet</title>
<path fill="none" stroke="#000000" d="M811.5971,-215.8314C788.4909,-206.159 759.8962,-194.1891 735.5423,-183.9944"/>
<polygon fill="#000000" stroke="#000000" points="736.6667,-180.6709 726.0908,-180.038 733.9637,-187.128 736.6667,-180.6709"/>
</g>
<!-- [root] var.own_ssh_key_path -->
<g id="node14" class="node">
<title>[root] var.own_ssh_key_path</title>
<polygon fill="none" stroke="#000000" points="1086.5,-180 947.5,-180 947.5,-144 1092.5,-144 1092.5,-174 1086.5,-180"/>
<polyline fill="none" stroke="#000000" points="1086.5,-180 1086.5,-174 "/>
<polyline fill="none" stroke="#000000" points="1092.5,-174 1086.5,-174 "/>
<text text-anchor="middle" x="1020" y="-158.3" font-family="Times,serif" font-size="14.00" fill="#000000">var.own_ssh_key_path</text>
</g>
<!-- [root] aws_instance.my_instances&#45;&gt;[root] var.own_ssh_key_path -->
<g id="edge8" class="edge">
<title>[root] aws_instance.my_instances&#45;&gt;[root] var.own_ssh_key_path</title>
<path fill="none" stroke="#000000" d="M896.6365,-215.8314C918.7042,-206.2018 945.9907,-194.295 969.2857,-184.1299"/>
<polygon fill="#000000" stroke="#000000" points="970.8974,-187.2454 978.6629,-180.038 968.0977,-180.8296 970.8974,-187.2454"/>
</g>
<!-- [root] provisioner.local&#45;exec -->
<g id="node18" class="node">
<title>[root] provisioner.local&#45;exec</title>
<ellipse fill="none" stroke="#000000" cx="1226" cy="-162" rx="115.0796" ry="18"/>
<text text-anchor="middle" x="1226" y="-158.3" font-family="Times,serif" font-size="14.00" fill="#000000">[root] provisioner.local&#45;exec</text>
</g>
<!-- [root] aws_instance.my_instances&#45;&gt;[root] provisioner.local&#45;exec -->
<g id="edge6" class="edge">
<title>[root] aws_instance.my_instances&#45;&gt;[root] provisioner.local&#45;exec</title>
<path fill="none" stroke="#000000" d="M940.5807,-217.3913C1001.6977,-205.5304 1083.4409,-189.6665 1143.7822,-177.956"/>
<polygon fill="#000000" stroke="#000000" points="1144.5035,-181.3814 1153.6535,-176.0403 1143.1699,-174.5096 1144.5035,-181.3814"/>
</g>
<!-- [root] provisioner.remote&#45;exec -->
<g id="node19" class="node">
<title>[root] provisioner.remote&#45;exec</title>
<ellipse fill="none" stroke="#000000" cx="1481" cy="-162" rx="122.3786" ry="18"/>
<text text-anchor="middle" x="1481" y="-158.3" font-family="Times,serif" font-size="14.00" fill="#000000">[root] provisioner.remote&#45;exec</text>
</g>
<!-- [root] aws_instance.my_instances&#45;&gt;[root] provisioner.remote&#45;exec -->
<g id="edge7" class="edge">
<title>[root] aws_instance.my_instances&#45;&gt;[root] provisioner.remote&#45;exec</title>
<path fill="none" stroke="#000000" d="M940.9313,-225.3599C1039.7249,-215.2562 1206.7166,-197.6559 1350,-180 1360.5538,-178.6995 1371.5772,-177.2804 1382.5548,-175.828"/>
<polygon fill="#000000" stroke="#000000" points="1383.1589,-179.2785 1392.6085,-174.4874 1382.2336,-172.34 1383.1589,-179.2785"/>
</g>
<!-- [root] aws_internet_gateway.squad_gw -->
<g id="node3" class="node">
<title>[root] aws_internet_gateway.squad_gw</title>
<polygon fill="none" stroke="#000000" points="370,-180 168,-180 168,-144 370,-144 370,-180"/>
<text text-anchor="middle" x="269" y="-158.3" font-family="Times,serif" font-size="14.00" fill="#000000">aws_internet_gateway.squad_gw</text>
</g>
<!-- [root] aws_vpc.squad_vpc -->
<g id="node9" class="node">
<title>[root] aws_vpc.squad_vpc</title>
<polygon fill="none" stroke="#000000" points="421.5,-108 292.5,-108 292.5,-72 421.5,-72 421.5,-108"/>
<text text-anchor="middle" x="357" y="-86.3" font-family="Times,serif" font-size="14.00" fill="#000000">aws_vpc.squad_vpc</text>
</g>
<!-- [root] aws_internet_gateway.squad_gw&#45;&gt;[root] aws_vpc.squad_vpc -->
<g id="edge9" class="edge">
<title>[root] aws_internet_gateway.squad_gw&#45;&gt;[root] aws_vpc.squad_vpc</title>
<path fill="none" stroke="#000000" d="M291.2061,-143.8314C302.045,-134.9632 315.2444,-124.1637 326.9678,-114.5718"/>
<polygon fill="#000000" stroke="#000000" points="329.2777,-117.2041 334.801,-108.1628 324.845,-111.7864 329.2777,-117.2041"/>
</g>
<!-- [root] var.username -->
<g id="node17" class="node">
<title>[root] var.username</title>
<polygon fill="none" stroke="#000000" points="526,-108 440,-108 440,-72 532,-72 532,-102 526,-108"/>
<polyline fill="none" stroke="#000000" points="526,-108 526,-102 "/>
<polyline fill="none" stroke="#000000" points="532,-102 526,-102 "/>
<text text-anchor="middle" x="486" y="-86.3" font-family="Times,serif" font-size="14.00" fill="#000000">var.username</text>
</g>
<!-- [root] aws_internet_gateway.squad_gw&#45;&gt;[root] var.username -->
<g id="edge10" class="edge">
<title>[root] aws_internet_gateway.squad_gw&#45;&gt;[root] var.username</title>
<path fill="none" stroke="#000000" d="M323.4782,-143.9243C356.0181,-133.1276 397.2615,-119.4432 430.0577,-108.5615"/>
<polygon fill="#000000" stroke="#000000" points="431.5567,-111.7518 439.9457,-105.2807 429.3522,-105.108 431.5567,-111.7518"/>
</g>
<!-- [root] provider.aws -->
<g id="node12" class="node">
<title>[root] provider.aws</title>
<polygon fill="none" stroke="#000000" points="563,-36 481.3895,-18 563,0 644.6105,-18 563,-36"/>
<text text-anchor="middle" x="563" y="-14.3" font-family="Times,serif" font-size="14.00" fill="#000000">provider.aws</text>
</g>
<!-- [root] aws_key_pair.deployer&#45;&gt;[root] provider.aws -->
<g id="edge11" class="edge">
<title>[root] aws_key_pair.deployer&#45;&gt;[root] provider.aws</title>
<path fill="none" stroke="#000000" d="M833.594,-143.8797C820.7706,-133.4563 804.4148,-120.0721 790,-108 771.1514,-92.2147 769.6191,-83.7073 748,-72 707.4881,-50.0618 657.035,-36.1009 619.0552,-27.8827"/>
<polygon fill="#000000" stroke="#000000" points="619.6934,-24.4405 609.1881,-25.8155 618.2579,-31.2917 619.6934,-24.4405"/>
</g>
<!-- [root] var.own_ssh_key -->
<g id="node13" class="node">
<title>[root] var.own_ssh_key</title>
<polygon fill="none" stroke="#000000" points="907,-108 799,-108 799,-72 913,-72 913,-102 907,-108"/>
<polyline fill="none" stroke="#000000" points="907,-108 907,-102 "/>
<polyline fill="none" stroke="#000000" points="913,-102 907,-102 "/>
<text text-anchor="middle" x="856" y="-86.3" font-family="Times,serif" font-size="14.00" fill="#000000">var.own_ssh_key</text>
</g>
<!-- [root] aws_key_pair.deployer&#45;&gt;[root] var.own_ssh_key -->
<g id="edge12" class="edge">
<title>[root] aws_key_pair.deployer&#45;&gt;[root] var.own_ssh_key</title>
<path fill="none" stroke="#000000" d="M856,-143.8314C856,-136.131 856,-126.9743 856,-118.4166"/>
<polygon fill="#000000" stroke="#000000" points="859.5001,-118.4132 856,-108.4133 852.5001,-118.4133 859.5001,-118.4132"/>
</g>
<!-- [root] aws_route.internet_access -->
<g id="node5" class="node">
<title>[root] aws_route.internet_access</title>
<polygon fill="none" stroke="#000000" points="359.5,-324 196.5,-324 196.5,-288 359.5,-288 359.5,-324"/>
<text text-anchor="middle" x="278" y="-302.3" font-family="Times,serif" font-size="14.00" fill="#000000">aws_route.internet_access</text>
</g>
<!-- [root] aws_route.internet_access&#45;&gt;[root] aws_internet_gateway.squad_gw -->
<g id="edge13" class="edge">
<title>[root] aws_route.internet_access&#45;&gt;[root] aws_internet_gateway.squad_gw</title>
<path fill="none" stroke="#000000" d="M276.8601,-287.7623C275.3251,-263.201 272.578,-219.2474 270.7721,-190.3541"/>
<polygon fill="#000000" stroke="#000000" points="274.2477,-189.8518 270.1306,-180.0896 267.2613,-190.2885 274.2477,-189.8518"/>
</g>
<!-- [root] aws_security_group.elb&#45;&gt;[root] aws_vpc.squad_vpc -->
<g id="edge14" class="edge">
<title>[root] aws_security_group.elb&#45;&gt;[root] aws_vpc.squad_vpc</title>
<path fill="none" stroke="#000000" d="M145.7965,-143.9243C187.5724,-133.2581 240.3869,-119.7736 282.7506,-108.9573"/>
<polygon fill="#000000" stroke="#000000" points="283.6266,-112.346 292.4499,-106.4809 281.8949,-105.5636 283.6266,-112.346"/>
</g>
<!-- [root] var.server_port -->
<g id="node15" class="node">
<title>[root] var.server_port</title>
<polygon fill="none" stroke="#000000" points="120,-108 24,-108 24,-72 126,-72 126,-102 120,-108"/>
<polyline fill="none" stroke="#000000" points="120,-108 120,-102 "/>
<polyline fill="none" stroke="#000000" points="126,-102 120,-102 "/>
<text text-anchor="middle" x="75" y="-86.3" font-family="Times,serif" font-size="14.00" fill="#000000">var.server_port</text>
</g>
<!-- [root] aws_security_group.elb&#45;&gt;[root] var.server_port -->
<g id="edge15" class="edge">
<title>[root] aws_security_group.elb&#45;&gt;[root] var.server_port</title>
<path fill="none" stroke="#000000" d="M75,-143.8314C75,-136.131 75,-126.9743 75,-118.4166"/>
<polygon fill="#000000" stroke="#000000" points="78.5001,-118.4132 75,-108.4133 71.5001,-118.4133 78.5001,-118.4132"/>
</g>
<!-- [root] aws_security_group.elb&#45;&gt;[root] var.username -->
<g id="edge16" class="edge">
<title>[root] aws_security_group.elb&#45;&gt;[root] var.username</title>
<path fill="none" stroke="#000000" d="M150.0487,-145.6109C153.0684,-145.0489 156.0609,-144.5093 159,-144 278.7184,-123.2547 311.4668,-134.6972 430,-108 430.0996,-107.9776 430.1993,-107.955 430.2991,-107.9324"/>
<polygon fill="#000000" stroke="#000000" points="430.8748,-111.3962 439.7287,-105.5773 429.1786,-104.6048 430.8748,-111.3962"/>
</g>
<!-- [root] aws_security_group.sg&#45;instance&#45;&gt;[root] aws_vpc.squad_vpc -->
<g id="edge17" class="edge">
<title>[root] aws_security_group.sg&#45;instance&#45;&gt;[root] aws_vpc.squad_vpc</title>
<path fill="none" stroke="#000000" d="M453.4479,-143.8314C436.7952,-134.5368 416.3415,-123.1208 398.5615,-113.1971"/>
<polygon fill="#000000" stroke="#000000" points="399.9795,-109.9803 389.5417,-108.1628 396.5679,-116.0927 399.9795,-109.9803"/>
</g>
<!-- [root] aws_security_group.sg&#45;instance&#45;&gt;[root] var.username -->
<g id="edge18" class="edge">
<title>[root] aws_security_group.sg&#45;instance&#45;&gt;[root] var.username</title>
<path fill="none" stroke="#000000" d="M486,-143.8314C486,-136.131 486,-126.9743 486,-118.4166"/>
<polygon fill="#000000" stroke="#000000" points="489.5001,-118.4132 486,-108.4133 482.5001,-118.4133 489.5001,-118.4132"/>
</g>
<!-- [root] aws_subnet.squad_subnet&#45;&gt;[root] aws_vpc.squad_vpc -->
<g id="edge19" class="edge">
<title>[root] aws_subnet.squad_subnet&#45;&gt;[root] aws_vpc.squad_vpc</title>
<path fill="none" stroke="#000000" d="M601.7297,-145.1772C554.8037,-135.324 494.4194,-122.4093 431.6432,-108.1172"/>
<polygon fill="#000000" stroke="#000000" points="432.0774,-104.6263 421.5491,-105.8118 430.5188,-111.4506 432.0774,-104.6263"/>
</g>
<!-- [root] var.subnet_block -->
<g id="node16" class="node">
<title>[root] var.subnet_block</title>
<polygon fill="none" stroke="#000000" points="733.5,-108 626.5,-108 626.5,-72 739.5,-72 739.5,-102 733.5,-108"/>
<polyline fill="none" stroke="#000000" points="733.5,-108 733.5,-102 "/>
<polyline fill="none" stroke="#000000" points="739.5,-102 733.5,-102 "/>
<text text-anchor="middle" x="683" y="-86.3" font-family="Times,serif" font-size="14.00" fill="#000000">var.subnet_block</text>
</g>
<!-- [root] aws_subnet.squad_subnet&#45;&gt;[root] var.subnet_block -->
<g id="edge20" class="edge">
<title>[root] aws_subnet.squad_subnet&#45;&gt;[root] var.subnet_block</title>
<path fill="none" stroke="#000000" d="M683,-143.8314C683,-136.131 683,-126.9743 683,-118.4166"/>
<polygon fill="#000000" stroke="#000000" points="686.5001,-118.4132 683,-108.4133 679.5001,-118.4133 686.5001,-118.4132"/>
</g>
<!-- [root] aws_subnet.squad_subnet&#45;&gt;[root] var.username -->
<g id="edge21" class="edge">
<title>[root] aws_subnet.squad_subnet&#45;&gt;[root] var.username</title>
<path fill="none" stroke="#000000" d="M633.5429,-143.9243C605.5878,-133.7072 570.5571,-120.9041 541.6452,-110.3373"/>
<polygon fill="#000000" stroke="#000000" points="542.6878,-106.992 532.094,-106.8465 540.2849,-113.5667 542.6878,-106.992"/>
</g>
<!-- [root] aws_vpc.squad_vpc&#45;&gt;[root] provider.aws -->
<g id="edge22" class="edge">
<title>[root] aws_vpc.squad_vpc&#45;&gt;[root] provider.aws</title>
<path fill="none" stroke="#000000" d="M408.7166,-71.9243C443.6034,-59.7308 489.0285,-43.8541 521.539,-32.4912"/>
<polygon fill="#000000" stroke="#000000" points="522.9027,-35.7223 531.1879,-29.1188 520.593,-29.1143 522.9027,-35.7223"/>
</g>
<!-- [root] output.elb_dns_name -->
<g id="node10" class="node">
<title>[root] output.elb_dns_name</title>
<polygon fill="none" stroke="#000000" points="573.5,-396 442.5,-396 442.5,-360 579.5,-360 579.5,-390 573.5,-396"/>
<polyline fill="none" stroke="#000000" points="573.5,-396 573.5,-390 "/>
<polyline fill="none" stroke="#000000" points="579.5,-390 573.5,-390 "/>
<text text-anchor="middle" x="511" y="-374.3" font-family="Times,serif" font-size="14.00" fill="#000000">output.elb_dns_name</text>
</g>
<!-- [root] output.elb_dns_name&#45;&gt;[root] aws_elb.load_balancing -->
<g id="edge26" class="edge">
<title>[root] output.elb_dns_name&#45;&gt;[root] aws_elb.load_balancing</title>
<path fill="none" stroke="#000000" d="M503.6821,-359.8314C500.5124,-351.9617 496.73,-342.5712 493.2187,-333.8533"/>
<polygon fill="#000000" stroke="#000000" points="496.3992,-332.3815 489.4165,-324.4133 489.9061,-334.9968 496.3992,-332.3815"/>
</g>
<!-- [root] output.instance_public_ip -->
<g id="node11" class="node">
<title>[root] output.instance_public_ip</title>
<polygon fill="none" stroke="#000000" points="785,-324 629,-324 629,-288 791,-288 791,-318 785,-324"/>
<polyline fill="none" stroke="#000000" points="785,-324 785,-318 "/>
<polyline fill="none" stroke="#000000" points="791,-318 785,-318 "/>
<text text-anchor="middle" x="710" y="-302.3" font-family="Times,serif" font-size="14.00" fill="#000000">output.instance_public_ip</text>
</g>
<!-- [root] output.instance_public_ip&#45;&gt;[root] aws_instance.my_instances -->
<g id="edge27" class="edge">
<title>[root] output.instance_public_ip&#45;&gt;[root] aws_instance.my_instances</title>
<path fill="none" stroke="#000000" d="M746.5896,-287.8314C765.7239,-278.3302 789.3229,-266.6121 809.6122,-256.5374"/>
<polygon fill="#000000" stroke="#000000" points="811.2735,-259.6203 818.6735,-252.038 808.1603,-253.3506 811.2735,-259.6203"/>
</g>
<!-- [root] meta.count&#45;boundary (EachMode fixup) -->
<g id="node20" class="node">
<title>[root] meta.count&#45;boundary (EachMode fixup)</title>
<ellipse fill="none" stroke="#000000" cx="504" cy="-450" rx="180.0681" ry="18"/>
<text text-anchor="middle" x="504" y="-446.3" font-family="Times,serif" font-size="14.00" fill="#000000">[root] meta.count&#45;boundary (EachMode fixup)</text>
</g>
<!-- [root] meta.count&#45;boundary (EachMode fixup)&#45;&gt;[root] aws_route.internet_access -->
<g id="edge23" class="edge">
<title>[root] meta.count&#45;boundary (EachMode fixup)&#45;&gt;[root] aws_route.internet_access</title>
<path fill="none" stroke="#000000" d="M479.1718,-432.1417C465.3021,-421.9135 447.8701,-408.6347 433,-396 415.271,-380.9362 414.2613,-373.0475 395,-360 376.7746,-347.6542 355.2742,-336.8211 335.7091,-328.1619"/>
<polygon fill="#000000" stroke="#000000" points="336.8506,-324.8424 326.2827,-324.0885 334.0739,-331.2682 336.8506,-324.8424"/>
</g>
<!-- [root] meta.count&#45;boundary (EachMode fixup)&#45;&gt;[root] output.elb_dns_name -->
<g id="edge24" class="edge">
<title>[root] meta.count&#45;boundary (EachMode fixup)&#45;&gt;[root] output.elb_dns_name</title>
<path fill="none" stroke="#000000" d="M505.7664,-431.8314C506.515,-424.131 507.4053,-414.9743 508.2373,-406.4166"/>
<polygon fill="#000000" stroke="#000000" points="511.7256,-406.7051 509.2098,-396.4133 504.7585,-406.0276 511.7256,-406.7051"/>
</g>
<!-- [root] meta.count&#45;boundary (EachMode fixup)&#45;&gt;[root] output.instance_public_ip -->
<g id="edge25" class="edge">
<title>[root] meta.count&#45;boundary (EachMode fixup)&#45;&gt;[root] output.instance_public_ip</title>
<path fill="none" stroke="#000000" d="M532.6823,-432.2018C549.0563,-421.8825 569.8711,-408.495 588,-396 619.2112,-374.4883 653.917,-348.6963 678.3075,-330.2482"/>
<polygon fill="#000000" stroke="#000000" points="680.6294,-332.88 686.4818,-324.0482 676.3992,-327.3027 680.6294,-332.88"/>
</g>
<!-- [root] provider.aws (close) -->
<g id="node21" class="node">
<title>[root] provider.aws (close)</title>
<ellipse fill="none" stroke="#000000" cx="278" cy="-378" rx="107.781" ry="18"/>
<text text-anchor="middle" x="278" y="-374.3" font-family="Times,serif" font-size="14.00" fill="#000000">[root] provider.aws (close)</text>
</g>
<!-- [root] provider.aws (close)&#45;&gt;[root] aws_elb.load_balancing -->
<g id="edge28" class="edge">
<title>[root] provider.aws (close)&#45;&gt;[root] aws_elb.load_balancing</title>
<path fill="none" stroke="#000000" d="M324.2908,-361.6621C353.0552,-351.5099 390.346,-338.3485 421.444,-327.3727"/>
<polygon fill="#000000" stroke="#000000" points="422.615,-330.6711 430.88,-324.0423 420.2852,-324.0701 422.615,-330.6711"/>
</g>
<!-- [root] provider.aws (close)&#45;&gt;[root] aws_route.internet_access -->
<g id="edge29" class="edge">
<title>[root] provider.aws (close)&#45;&gt;[root] aws_route.internet_access</title>
<path fill="none" stroke="#000000" d="M278,-359.8314C278,-352.131 278,-342.9743 278,-334.4166"/>
<polygon fill="#000000" stroke="#000000" points="281.5001,-334.4132 278,-324.4133 274.5001,-334.4133 281.5001,-334.4132"/>
</g>
<!-- [root] provisioner.local&#45;exec (close) -->
<g id="node22" class="node">
<title>[root] provisioner.local&#45;exec (close)</title>
<ellipse fill="none" stroke="#000000" cx="1026" cy="-378" rx="141.8751" ry="18"/>
<text text-anchor="middle" x="1026" y="-374.3" font-family="Times,serif" font-size="14.00" fill="#000000">[root] provisioner.local&#45;exec (close)</text>
</g>
<!-- [root] provisioner.local&#45;exec (close)&#45;&gt;[root] aws_instance.my_instances -->
<g id="edge30" class="edge">
<title>[root] provisioner.local&#45;exec (close)&#45;&gt;[root] aws_instance.my_instances</title>
<path fill="none" stroke="#000000" d="M1004.6885,-360.0535C974.3524,-334.5073 918.6102,-287.5665 884.375,-258.7369"/>
<polygon fill="#000000" stroke="#000000" points="886.4837,-255.9369 876.5801,-252.1727 881.9747,-261.2913 886.4837,-255.9369"/>
</g>
<!-- [root] provisioner.remote&#45;exec (close) -->
<g id="node23" class="node">
<title>[root] provisioner.remote&#45;exec (close)</title>
<ellipse fill="none" stroke="#000000" cx="852" cy="-450" rx="149.4735" ry="18"/>
<text text-anchor="middle" x="852" y="-446.3" font-family="Times,serif" font-size="14.00" fill="#000000">[root] provisioner.remote&#45;exec (close)</text>
</g>
<!-- [root] provisioner.remote&#45;exec (close)&#45;&gt;[root] aws_instance.my_instances -->
<g id="edge31" class="edge">
<title>[root] provisioner.remote&#45;exec (close)&#45;&gt;[root] aws_instance.my_instances</title>
<path fill="none" stroke="#000000" d="M852.2506,-431.9555C852.7723,-394.3938 853.9784,-307.5541 854.6054,-262.4103"/>
<polygon fill="#000000" stroke="#000000" points="858.1087,-262.1927 854.748,-252.1451 851.1094,-262.0955 858.1087,-262.1927"/>
</g>
<!-- [root] root -->
<g id="node24" class="node">
<title>[root] root</title>
<ellipse fill="none" stroke="#000000" cx="678" cy="-522" rx="48.1917" ry="18"/>
<text text-anchor="middle" x="678" y="-518.3" font-family="Times,serif" font-size="14.00" fill="#000000">[root] root</text>
</g>
<!-- [root] root&#45;&gt;[root] meta.count&#45;boundary (EachMode fixup) -->
<g id="edge32" class="edge">
<title>[root] root&#45;&gt;[root] meta.count&#45;boundary (EachMode fixup)</title>
<path fill="none" stroke="#000000" d="M645.6797,-508.6261C620.5146,-498.2129 585.0849,-483.5524 555.9514,-471.4971"/>
<polygon fill="#000000" stroke="#000000" points="556.915,-468.1081 546.3366,-467.5186 554.2385,-474.5762 556.915,-468.1081"/>
</g>
<!-- [root] root&#45;&gt;[root] provider.aws (close) -->
<g id="edge33" class="edge">
<title>[root] root&#45;&gt;[root] provider.aws (close)</title>
<path fill="none" stroke="#000000" d="M629.9712,-520.6188C542.7997,-517.1974 363.0993,-505.6559 315,-468 295.8561,-453.0127 286.5432,-426.4335 282.058,-406.0319"/>
<polygon fill="#000000" stroke="#000000" points="285.4575,-405.176 280.1261,-396.0204 278.5843,-406.5024 285.4575,-405.176"/>
</g>
<!-- [root] root&#45;&gt;[root] provisioner.local&#45;exec (close) -->
<g id="edge34" class="edge">
<title>[root] root&#45;&gt;[root] provisioner.local&#45;exec (close)</title>
<path fill="none" stroke="#000000" d="M726.242,-520.799C808.4655,-517.7078 970.6929,-506.7335 1010,-468 1026.0017,-452.2318 1029.199,-426.3829 1028.8598,-406.4233"/>
<polygon fill="#000000" stroke="#000000" points="1032.351,-406.1507 1028.388,-396.325 1025.3586,-406.4775 1032.351,-406.1507"/>
</g>
<!-- [root] root&#45;&gt;[root] provisioner.remote&#45;exec (close) -->
<g id="edge35" class="edge">
<title>[root] root&#45;&gt;[root] provisioner.remote&#45;exec (close)</title>
<path fill="none" stroke="#000000" d="M710.3203,-508.6261C735.6835,-498.131 771.4735,-483.3213 800.7354,-471.2129"/>
<polygon fill="#000000" stroke="#000000" points="802.0833,-474.4431 809.9852,-467.3854 799.4068,-467.975 802.0833,-474.4431"/>
</g>
</g>
</svg>
